<svg id="Layer_1" data-name="Layer 1" xmlns="http://www.w3.org/2000/svg" viewBox="0 0 512 512"><defs><style>.cls-1{fill:#d5af34;}</style></defs><title>leeway_logo_</title><g id="_Group_" data-name="&lt;Group&gt;"><path id="_Path_" data-name="&lt;Path&gt;" class="cls-1" d="M303.1,462.79c4.34-.4,8.1-2.67,12.26-3.74,7.5-1.91,14.82-4.56,22.27-6.72,5.53-1.61,11.1-3.1,16.72-4.36,17.15-3.85,34.33-7.48,51.79-9.68,15.12-1.91,30.22-3.73,45.5-4,9.92-.19,19.83-1.34,29.78-1.07,4.42.11,8.84.47,13.26.64,2.1.08,3,1.12,3.4,3.12q5.61,28.54,11.34,57.07c.31,1.55.87,3.06,1.19,4.61.52,2.54-.73,3.17-2.88,2.31a217.62,217.62,0,0,0-22.15-7.35c-6.22-1.74-12.4-3.7-18.7-5.14-9.5-2.17-19.05-4.24-28.66-5.88-12.69-2.17-25.5-3.47-38.36-4.44a438.06,438.06,0,0,0-46.81-1.34c-12.88.42-25.79,1.07-38.59,2.42-8.27.87-16.58,1.6-24.82,2.81-2.29.33-3.11,1.27-3.09,3.58.09,7.88,0,15.76,0,23.64,0,1.76-.34,2.87-2.43,2.73-12.91-.85-25.83-.23-38.75-.38-5.42-.06-10.85-.14-16.25.22-2.72.18-3.18-.91-3.16-3.11.07-7.39,0-14.79.17-22.17.09-3-1.08-4.13-3.89-4.5-20.59-2.68-41.26-4.45-62-5.15a480,480,0,0,0-54.55,1.75,389.31,389.31,0,0,0-45.45,6.45,320,320,0,0,0-47,12.66c-3,1.11-6.19,1.9-9.19,3.21-1.88.83-3.24.21-2.58-2.22,2.62-9.68,3.88-19.63,6.26-29.38C10.24,458.93,12,448.29,14,437.71c.51-2.8,1.69-3.89,4.57-4.12,19.59-1.54,39.11.36,58.61,1.41A302.35,302.35,0,0,1,118,440.17c9,1.73,18.13,2.94,27.08,4.94s18,4.46,27,6.64c9.83,2.39,19.27,5.94,29,8.48,7.11,1.84,13.89,5,20.76,7.69a7.1,7.1,0,0,0,5.18.33c-3.59-2.49-6.63-4.79-9.85-6.8-12.43-7.78-25-15.31-38.14-21.87a353.49,353.49,0,0,0-39.32-17c-11.31-4-22.69-7.74-34.32-10.64-8.79-2.2-17.65-4.13-26.61-5.66-12.42-2.11-24.9-3.2-37.42-4.1-2.35-.17-2.83-1.22-1.94-3.12,5.66-12.16,11.38-24.3,17.05-36.46.88-1.89,2.15-2,3.92-1.35,9.46,3.32,19,6.34,28.39,9.88,13.68,5.17,27.21,10.69,40.48,16.89q12.88,6,25.39,12.73c9.46,5.06,18.6,10.74,27.72,16.41,6.7,4.16,13.32,8.49,19.66,13.18,7.45,5.51,14.58,11.45,21.8,17.26a403.18,403.18,0,0,1,30,27.39c1.84,1.81,3.16,1,4.65-.46q10.14-10.1,20.93-19.5c10.22-8.91,20.87-17.21,31.79-25.25,12.92-9.5,26.54-17.8,40.35-25.82,12.25-7.12,25.05-13.19,37.94-19.07,14.7-6.7,29.8-12.37,45-17.87,5.38-1.94,11-3.31,16.28-5.39,3-1.18,4.44-.42,5.68,2.32,4.76,10.58,9.71,21.07,14.44,31.67,2.71,6.07,2.57,6.06-4.21,6.61a379,379,0,0,0-48,6.86,355.77,355.77,0,0,0-74.34,25.06,380.1,380.1,0,0,0-51,28.52c-1.41,2.5-4.37,3-6.2,5.09C292.44,466,297.74,464.29,303.1,462.79Z"/><path id="_Path_2" data-name="&lt;Path&gt;" class="cls-1" d="M298.58,403.54c-6.28,0-12.57,0-18.85,0-4.65,0-6.76-2.09-6.87-6.73a213,213,0,0,1,4.62-51.63,175.31,175.31,0,0,1,12.14-35.71c9.94-21.39,23.51-40.15,39.71-57.2,8.5-8.94,16.39-18.46,24.66-27.63,6.64-7.34,13.36-14.62,20.22-21.75,2.51-2.61,2.46-5,.29-7.42-4.09-4.52-8.38-8.87-12.61-13.26-2.62-2.71-5.34-5.32-7.93-8.06-4.9-5.18-6.64-4.94-11.64,0-10,9.83-20.36,19.34-30.53,29-5.23,5-10.36,10.07-15.59,15-3.49,3.31-6.16,3.39-9.52,0-9.47-9.73-18.8-19.6-28.23-29.38-2.5-2.59-1.95-4.76.42-7.06,12.22-11.83,24.37-23.73,36.58-35.56,13.35-12.94,26.32-26.28,40.05-38.83,2.43-2.23,4.54-4.8,6.92-7.08,3.3-3.16,5.91-3.17,9.13.12,7,7.15,13.81,14.49,20.82,21.62,13.64,13.88,27.08,28,40.64,41.94,10.46,10.79,20.82,21.68,31.2,32.55,2.67,2.8,2.62,5.63.08,8.46-16,17.83-32.78,35-49.24,52.37-12.93,13.67-25.79,27.44-38,41.75a131.49,131.49,0,0,0-27.87,53.05c-3.69,14.38-4.58,29.13-4.47,43.9,0,5.78-1.71,7.38-7.67,7.55-6.15.17-12.31,0-18.47,0Z"/><path id="_Path_3" data-name="&lt;Path&gt;" class="cls-1" d="M210.46,403.52c-6.28,0-12.55,0-18.83,0-4.74,0-7-2-7-6.56a196.23,196.23,0,0,0-2.23-35.27,127.25,127.25,0,0,0-9-29.47A141.36,141.36,0,0,0,157,304.65c-7.5-10.14-16.38-19.08-24.78-28.44q-17.35-19.33-34.88-38.53c-4.77-5.23-9.73-10.29-14.52-15.5-4.48-4.87-4.29-7.13.5-11.71Q96.55,197.8,109.69,185c3.6-3.49,6.34-3.23,9.82.59,8.07,8.84,16.34,17.51,24.41,26.36,10.67,11.68,21.13,23.55,31.86,35.18,10.37,11.24,20.46,22.69,29,35.41a180.58,180.58,0,0,1,23,47.21,175,175,0,0,1,6.79,32.65,253.66,253.66,0,0,1,1.89,34.16c-.12,5.32-1.78,6.92-7.23,6.95-6.28,0-12.56,0-18.84,0Z"/><path id="_Path_4" data-name="&lt;Path&gt;" class="cls-1" d="M239.28,206.21a5.76,5.76,0,0,1-2,4.36c-9.68,9.35-19.29,18.76-29,28.06-2.66,2.55-5.41,2.34-8.05-.38q-20.28-20.92-40.51-41.9-21.15-21.93-42.26-43.92-3.83-4-7.54-8c-2.32-2.54-2.37-5.3.17-7.79,7.65-7.53,15.4-14.94,23.13-22.39,2-1.93,4-3.91,6.14-5.72,3.19-2.7,5-2.54,7.87.42,8,8.21,15.84,16.65,23.92,24.79,12.45,12.55,24.52,25.47,36.94,38.05,9.62,9.74,19.13,19.62,28.59,29.52C237.92,202.55,239.43,203.89,239.28,206.21Z"/><path id="_Path_5" data-name="&lt;Path&gt;" class="cls-1" d="M232.74,87.24c11,11.57,22,23.19,33.19,34.63,1.68,1.73,3.59,3.3,5.18,5.14,2.51,2.9,2.41,5.64-.29,8.29q-13.35,13.13-26.75,26.2c-5,4.89-7,4.84-12.12-.49-13.43-13.9-26.79-27.89-40.2-41.82q-21.58-22.44-43.21-44.83c-2.76-2.86-2.84-6.23,0-9q13.58-13.15,27.19-26.26c4.24-4.08,6.75-4,10.86.24q21.64,22.44,43.27,44.9A4.72,4.72,0,0,0,232.74,87.24Z"/><path id="_Path_6" data-name="&lt;Path&gt;" class="cls-1" d="M252.64.05c1.77-.26,3,.72,4.13,1.92Q291,37.51,325.17,73c3.65,3.8,3.53,5.95-.23,9.64q-13.54,13.26-27.12,26.49c-3.32,3.23-6.49,3.14-9.77-.25q-33.71-34.82-67.4-69.63c-3.9-4-3.81-7.1.18-10.94q13.48-13,27-26C249.14,1.12,250.48-.3,252.64.05Z"/><path id="_Path_7" data-name="&lt;Path&gt;" class="cls-1" d="M303.1,462.79c-3.29,2.5-7.59,2.5-11.1,4.47a1.74,1.74,0,0,1-.7.22c-2.15.23-4.55,3.4-6.08.9-.77-1.26,3.11-2.31,4.62-3.83.89-.89,2.32-1.24,3.51-1.84.68,2.41,2.79,1.84,3.81,1.09C299.11,462.38,301.07,462.78,303.1,462.79Z"/><path id="_Path_8" data-name="&lt;Path&gt;" class="cls-1" d="M232.74,87.24c-2.21.24-3.19-.74-2.89-3A5.87,5.87,0,0,1,232.74,87.24Z"/></g></svg>